<?xml version="1.0" standalone="no"?>
<!DOCTYPE svg PUBLIC "-//W3C//DTD SVG 20010904//EN"
 "http://www.w3.org/TR/2001/REC-SVG-20010904/DTD/svg10.dtd">
<svg version="1.0" xmlns="http://www.w3.org/2000/svg"
 width="2286.000000pt" height="918.000000pt" viewBox="0 0 2286.000000 918.000000"
 preserveAspectRatio="xMidYMid meet">
<metadata>
Created by potrace 1.13, written by Peter Selinger 2001-2015
</metadata>
<g transform="translate(0.000000,918.000000) scale(0.100000,-0.100000)"
fill="#000000" stroke="none">
<path d="M14595 8802 c-69 -11 -195 -49 -225 -68 -46 -29 -161 -143 -210 -208
-77 -102 -128 -261 -113 -352 15 -91 36 -185 50 -229 11 -31 17 -84 18 -141 0
-123 -17 -149 -168 -248 -220 -144 -329 -303 -381 -557 -28 -137 0 -509 54
-714 55 -208 78 -450 73 -750 -3 -169 -100 -466 -200 -611 -45 -66 -71 -128
-100 -239 -30 -113 -19 -401 19 -510 6 -16 28 -88 50 -160 98 -327 103 -482
27 -830 -37 -168 -80 -305 -124 -400 -26 -55 -56 -94 -139 -178 -129 -132
-219 -249 -262 -342 -33 -72 -101 -294 -136 -445 -10 -47 -33 -143 -49 -213
-16 -71 -36 -161 -43 -200 -45 -237 -80 -343 -138 -412 -39 -47 -59 -93 -65
-149 -10 -94 50 -178 169 -238 98 -49 213 -97 283 -118 39 -11 84 -25 100 -31
17 -6 80 -17 140 -24 240 -31 311 -41 323 -49 12 -7 82 13 82 24 0 3 30 26 66
50 65 43 100 90 90 122 -3 7 -7 25 -10 40 -9 39 -44 53 -175 72 -63 10 -127
24 -142 32 -99 51 -279 211 -305 271 -8 18 -14 71 -15 125 -1 85 3 103 36 193
33 92 125 284 174 366 11 19 28 48 37 64 18 32 70 114 162 255 88 135 359 391
500 472 75 44 84 53 135 136 42 67 67 126 105 243 66 204 97 315 118 424 9 50
19 94 21 98 8 13 100 -71 170 -156 37 -45 72 -85 77 -88 5 -4 70 -58 144 -120
162 -137 422 -393 422 -417 4 -228 30 -403 79 -532 45 -119 209 -388 426 -700
37 -52 80 -122 97 -155 40 -78 123 -307 163 -450 37 -130 67 -159 199 -189
114 -27 240 2 337 76 25 19 72 45 105 58 32 12 97 42 144 65 67 33 115 48 225
70 200 39 314 83 405 155 47 38 51 65 15 109 -28 33 -54 43 -161 61 -57 10
-91 10 -170 0 -212 -26 -281 -20 -495 50 -168 54 -197 76 -258 199 -27 53 -65
140 -85 194 -20 53 -43 112 -50 130 -18 41 -130 384 -195 597 -88 288 -93 315
-89 533 l3 192 -29 58 c-33 67 -123 190 -241 327 -95 110 -130 155 -303 385
-157 207 -183 246 -307 455 -54 91 -112 185 -128 209 -30 44 -30 45 -19 110 6
36 35 125 63 196 87 222 123 346 175 613 18 95 36 177 39 183 7 11 260 -115
336 -168 49 -33 56 -35 106 -29 109 13 134 34 364 316 34 41 174 190 313 330
138 140 269 275 292 300 40 45 191 191 315 305 49 45 68 71 78 104 9 31 30 62
70 101 35 34 60 69 64 86 7 36 -2 95 -18 114 -21 27 -52 85 -58 111 -6 25 7
65 57 181 18 42 25 24 -124 343 -49 105 -133 286 -187 404 -54 118 -103 216
-108 218 -10 3 -75 -159 -156 -387 -20 -58 -76 -204 -124 -325 -48 -121 -98
-249 -110 -285 -57 -159 -216 -570 -304 -785 -34 -82 -59 -155 -57 -162 3 -6
39 -17 80 -24 72 -11 91 -21 64 -32 -24 -9 -262 -180 -340 -243 -110 -90 -109
-90 -187 -7 -36 38 -135 157 -220 263 -136 172 -156 202 -176 265 -41 130
-144 373 -251 592 -30 61 -54 118 -54 127 0 19 105 52 206 65 39 5 81 14 93
21 54 28 121 277 121 448 0 33 5 73 12 89 7 16 12 82 13 158 1 72 7 166 13
210 l12 80 -47 94 c-29 61 -62 111 -92 140 -56 56 -188 125 -267 140 -33 7
-86 19 -119 28 -65 17 -168 30 -200 25z"/>
<path d="M10370 8116 c-72 -40 -146 -77 -201 -99 -51 -21 -117 -117 -187 -273
-31 -71 -73 -156 -91 -189 -66 -115 -200 -301 -270 -373 -39 -41 -90 -98 -113
-128 -43 -58 -91 -183 -103 -269 -3 -28 -17 -93 -30 -145 -13 -52 -33 -151
-45 -220 -41 -234 -61 -345 -86 -470 -23 -117 -41 -255 -64 -479 -12 -114 -1
-164 46 -220 88 -103 110 -233 58 -348 -8 -17 -14 -35 -14 -40 0 -5 -11 -32
-25 -60 -13 -28 -27 -64 -30 -80 -4 -15 -18 -52 -32 -82 -34 -77 -73 -198 -80
-251 -7 -60 13 -192 37 -247 11 -24 38 -65 61 -91 53 -61 66 -86 89 -180 25
-99 25 -116 10 -412 -11 -227 -8 -548 6 -620 5 -25 -1 -39 -35 -84 -62 -80
-194 -200 -327 -298 -66 -48 -131 -99 -145 -115 -31 -34 -53 -102 -90 -282
-48 -239 -87 -394 -120 -476 -17 -44 -42 -107 -54 -140 -104 -271 -111 -287
-185 -418 l-32 -58 38 -77 c46 -91 62 -101 251 -168 140 -49 155 -57 216 -115
77 -73 132 -97 247 -110 57 -6 150 -9 208 -7 103 4 105 4 133 36 47 52 41 86
-29 152 -33 31 -103 86 -158 122 -115 78 -149 111 -195 193 -18 33 -43 75 -55
93 -13 18 -30 55 -39 81 -14 44 -14 56 -1 120 25 120 85 219 194 320 51 47
108 95 127 107 47 28 227 214 289 299 69 94 76 105 206 301 110 166 111 168
217 424 22 52 59 151 83 220 24 69 47 129 51 134 4 5 20 -6 36 -25 15 -19 82
-88 149 -154 67 -66 130 -136 139 -155 10 -19 38 -64 64 -100 l46 -65 0 -190
c0 -104 -4 -235 -9 -290 -13 -157 -10 -254 9 -310 16 -47 48 -101 220 -375
106 -169 204 -346 231 -420 20 -51 27 -97 35 -225 14 -201 19 -228 44 -231 11
-2 45 -10 75 -19 60 -17 109 -16 288 11 84 13 122 14 215 5 185 -19 260 -29
297 -40 19 -6 55 -11 80 -11 39 0 53 6 108 50 66 54 107 118 97 151 -4 10 -28
28 -56 40 -27 12 -49 25 -49 29 0 9 -105 56 -145 65 -207 46 -366 129 -571
297 l-71 59 -26 92 c-46 165 -56 210 -72 342 -28 234 -37 300 -46 322 -7 19
-14 96 -34 378 -9 139 -15 191 -24 221 -5 18 -7 69 -4 116 5 77 3 88 -22 138
-15 30 -35 66 -45 80 -9 14 -43 83 -76 154 -62 138 -161 317 -218 394 -18 26
-42 65 -53 87 -11 22 -64 123 -118 225 -54 102 -106 209 -116 239 -22 64 -24
140 -4 196 8 22 20 67 26 100 21 117 70 301 94 352 13 29 27 65 31 80 32 141
96 323 113 323 17 0 127 -127 231 -265 57 -77 136 -177 175 -223 38 -46 91
-111 117 -144 52 -66 108 -197 115 -268 5 -41 1 -50 -32 -90 -42 -50 -51 -69
-60 -122 -6 -41 -20 -50 -28 -19 -4 16 -13 19 -57 18 -66 -3 -75 -17 -66 -106
5 -45 15 -78 32 -104 36 -55 94 -117 110 -117 7 0 30 -9 51 -19 48 -24 170
-37 215 -22 57 19 105 88 151 219 46 130 47 148 29 362 -9 111 -15 136 -50
221 -22 52 -57 124 -78 160 -45 77 -229 341 -293 420 -47 58 -73 97 -199 298
-151 241 -196 353 -228 561 -24 162 -20 204 33 348 63 171 67 232 23 357 -92
261 -165 618 -131 639 5 3 73 8 152 12 79 3 156 10 171 16 20 7 36 28 58 77
27 56 31 73 24 111 -3 25 -8 97 -9 160 -2 99 2 125 23 188 32 96 26 129 -34
185 -25 23 -58 65 -74 92 -34 59 -66 77 -173 100 -141 31 -174 36 -307 50 -74
8 -149 17 -165 20 -23 5 -45 -2 -95 -29z"/>
<path d="M15994 7969 c-8 -13 -54 -177 -188 -664 -26 -93 -81 -291 -123 -439
-60 -213 -73 -270 -62 -276 12 -8 247 -66 293 -72 19 -3 6 -36 421 1014 91
229 165 418 165 421 0 2 -89 7 -197 11 -109 4 -221 9 -249 12 -37 4 -54 2 -60
-7z"/>
<path d="M18677 7636 c-123 -37 -255 -141 -344 -271 -57 -85 -68 -109 -94
-210 -17 -68 -23 -121 -25 -220 0 -71 -6 -142 -12 -157 -6 -15 -14 -69 -18
-120 -6 -86 -11 -101 -60 -199 -65 -131 -168 -301 -231 -381 -107 -136 -151
-207 -205 -335 -16 -40 -34 -73 -40 -73 -6 0 -20 12 -32 27 -67 86 -160 182
-186 193 -41 17 -155 8 -240 -19 -47 -15 -76 -31 -104 -60 l-39 -40 0 -88 c0
-58 7 -115 21 -168 11 -44 28 -111 37 -150 31 -136 57 -227 106 -370 27 -80
68 -220 90 -312 22 -93 76 -312 119 -488 43 -176 86 -354 95 -395 10 -41 34
-138 55 -215 39 -142 133 -493 171 -640 11 -44 25 -91 30 -105 5 -14 22 -77
38 -140 27 -112 56 -188 83 -221 24 -29 92 -59 134 -59 79 0 79 -16 8 -325
-67 -286 -71 -306 -104 -495 -53 -296 -68 -383 -75 -430 -4 -25 -13 -67 -21
-95 -7 -27 -21 -90 -29 -140 -9 -49 -31 -150 -50 -225 -70 -284 -69 -320 8
-320 23 0 47 4 53 8 23 15 47 77 179 467 30 88 81 230 113 315 33 85 87 236
120 335 34 99 81 236 106 305 25 69 73 204 107 300 100 285 111 311 139 322
51 20 200 37 370 43 96 3 234 8 305 11 320 12 773 16 790 6 10 -5 24 -29 31
-53 6 -24 22 -75 34 -114 12 -38 25 -83 30 -100 5 -16 26 -82 48 -145 22 -63
50 -151 62 -195 20 -71 38 -125 126 -365 13 -36 64 -180 113 -320 221 -630
237 -673 273 -727 27 -39 33 -43 72 -43 28 0 49 6 63 20 27 24 24 50 -28 260
-20 85 -52 216 -69 290 -17 74 -37 162 -45 195 -50 210 -65 282 -79 380 -9 61
-25 153 -36 205 -67 326 -110 601 -98 632 7 18 98 10 178 -17 45 -15 61 -16
105 -6 85 19 142 92 251 316 38 81 69 134 75 128 5 -5 13 -44 19 -88 6 -44 16
-118 22 -164 11 -79 10 -94 -20 -245 -33 -167 -62 -352 -82 -516 -6 -52 -29
-225 -50 -385 -64 -471 -70 -534 -70 -656 0 -97 3 -120 18 -137 43 -50 264
-75 421 -47 52 9 144 18 205 21 61 2 119 7 128 10 9 3 30 -1 45 -9 22 -11 74
-13 236 -11 l209 2 65 34 c102 52 116 79 92 187 -8 40 -18 57 -47 79 -46 36
-61 41 -131 48 -31 4 -79 14 -108 24 -28 10 -71 21 -95 25 -24 3 -64 13 -89
21 l-46 14 -41 125 c-60 176 -58 221 33 695 13 69 27 148 31 175 3 28 14 86
24 130 10 44 21 105 24 135 4 30 16 114 26 185 36 245 51 488 54 850 2 193 -1
364 -4 382 -8 34 -71 117 -96 127 -81 31 -432 73 -834 101 -117 8 -215 17
-218 20 -3 3 3 5 14 6 32 0 227 18 263 24 19 3 40 10 47 16 22 18 26 65 8 118
-9 28 -13 62 -10 75 3 14 32 78 64 143 53 107 68 137 93 183 5 8 18 33 30 55
12 22 36 63 54 90 18 28 61 95 95 150 35 55 98 153 139 217 42 64 112 174 156
244 44 69 97 146 119 170 29 34 37 50 32 68 -5 21 -15 25 -88 36 -149 22 -134
28 -208 -81 -36 -52 -84 -122 -108 -155 -67 -92 -203 -299 -268 -409 -174
-291 -344 -592 -344 -609 0 -36 -25 -39 -258 -33 -125 2 -235 8 -245 12 -9 4
-20 19 -23 34 -3 14 -14 44 -24 66 -11 22 -24 57 -30 78 -7 20 -25 51 -42 67
-26 27 -36 30 -90 30 -57 0 -65 3 -117 42 -31 24 -62 46 -71 49 -17 7 -104
-16 -135 -35 -25 -16 -148 -70 -234 -102 -89 -33 -120 -31 -173 11 -24 19 -81
65 -128 101 -116 91 -153 133 -209 244 -73 144 -95 212 -171 517 -79 321 -96
369 -187 545 -37 70 -63 131 -59 135 4 5 64 7 132 5 l125 -3 27 32 c29 35 63
70 104 106 13 12 30 41 37 65 14 46 37 78 56 78 28 0 62 40 69 80 4 23 13 51
21 63 8 12 21 53 30 90 23 101 71 224 111 290 103 166 71 279 -136 488 -101
101 -130 124 -235 184 -66 37 -144 76 -174 86 -72 25 -158 23 -254 -5z"/>
<path d="M6960 7591 c-101 -32 -288 -129 -328 -169 -20 -20 -62 -87 -93 -147
-63 -125 -64 -126 -114 -290 -20 -66 -46 -139 -58 -162 -33 -63 -300 -313
-384 -359 -98 -54 -174 -107 -206 -144 -38 -45 -102 -174 -123 -251 -10 -35
-31 -95 -46 -132 -16 -38 -32 -92 -35 -120 -10 -95 -44 -191 -117 -327 -76
-141 -78 -145 -182 -304 -70 -108 -165 -270 -208 -355 -23 -47 -26 -62 -20
-110 11 -95 66 -311 141 -549 34 -109 35 -118 28 -210 -3 -54 -17 -133 -30
-177 -33 -110 -58 -275 -53 -338 8 -88 77 -235 149 -315 48 -53 59 -76 164
-334 13 -32 52 -102 88 -155 177 -270 206 -325 186 -349 -6 -7 -43 -35 -82
-60 -100 -66 -192 -138 -274 -214 -111 -103 -249 -176 -350 -184 -191 -17
-254 -30 -384 -77 -50 -19 -56 -46 -64 -279 -10 -314 5 -509 55 -708 22 -86
45 -168 52 -180 7 -13 30 -33 51 -44 61 -31 187 -70 204 -64 8 4 42 1 74 -6
66 -13 98 -5 123 34 14 21 12 32 -14 123 -16 55 -34 107 -38 115 -23 40 -72
320 -72 410 0 61 29 175 57 222 49 84 604 269 878 293 137 12 210 33 349 101
38 19 75 34 81 34 7 0 24 12 39 26 23 24 26 35 26 93 -1 99 -15 195 -60 390
-56 241 -57 246 -85 416 -51 309 -67 475 -46 475 6 0 12 -4 15 -9 3 -4 34 -25
68 -46 138 -82 258 -178 408 -329 198 -200 203 -207 197 -311 -3 -44 -21 -165
-40 -270 -91 -491 -96 -641 -32 -1020 13 -77 31 -160 40 -185 12 -33 16 -77
15 -165 -2 -186 -3 -181 31 -220 18 -20 46 -43 63 -52 48 -25 176 -34 307 -23
77 7 131 7 160 1 33 -7 67 -6 128 4 45 8 87 18 93 21 21 13 181 23 201 12 23
-12 103 6 130 29 34 31 21 63 -50 130 -73 68 -145 104 -247 124 -70 13 -276
114 -329 161 -29 26 -39 44 -46 83 -17 98 -23 318 -11 420 14 118 23 164 120
600 58 260 89 588 69 712 -12 67 -65 155 -155 256 -23 26 -68 86 -99 134 -32
47 -61 91 -66 97 -4 6 -56 83 -115 171 -58 88 -118 174 -133 191 -33 39 -113
150 -168 234 -23 36 -48 72 -56 80 -24 25 -77 125 -77 145 0 20 51 168 117
335 24 63 54 140 65 170 39 109 91 235 102 249 7 9 22 11 51 6 22 -3 60 -10
85 -14 57 -9 346 -152 425 -209 33 -25 78 -52 101 -62 71 -31 134 -135 134
-222 0 -17 7 -45 16 -64 20 -43 97 -114 124 -114 22 0 45 30 55 73 9 34 20 34
42 0 21 -32 21 -105 0 -156 -8 -19 -18 -56 -21 -83 -7 -49 -7 -50 26 -66 69
-32 93 -32 132 2 41 36 160 204 187 264 14 31 19 66 19 142 0 204 -44 264
-305 415 -61 35 -137 77 -170 94 -102 51 -168 92 -230 143 -33 26 -103 72
-155 101 -135 76 -207 126 -267 184 -75 73 -84 111 -82 335 2 247 -10 313 -83
437 -18 31 -38 66 -45 78 -11 21 -17 97 -14 181 l1 39 70 -7 c39 -4 94 -14
123 -23 38 -12 90 -15 197 -14 238 3 210 -7 355 119 84 73 92 83 117 153 15
41 28 80 28 87 0 7 -20 34 -44 60 -42 45 -116 170 -116 196 0 7 -11 27 -25 46
-13 18 -32 56 -41 84 -19 59 -80 128 -166 187 -32 22 -64 52 -72 67 -18 34
-63 77 -143 134 -59 44 -79 51 -213 73 -14 2 -50 -4 -80 -14z"/>
<path d="M3555 5224 c-16 -9 -84 -43 -150 -77 -133 -68 -101 -63 -345 -56
-114 4 -116 4 -210 -35 -238 -97 -521 -251 -663 -360 -412 -317 -962 -825
-1094 -1010 -32 -45 -101 -139 -153 -211 -150 -204 -232 -353 -294 -538 l-35
-107 66 -121 c69 -125 111 -179 175 -222 21 -13 74 -59 119 -100 77 -72 82
-79 105 -154 29 -94 40 -213 25 -268 -8 -33 -24 -50 -83 -95 -112 -84 -175
-128 -215 -148 -35 -19 -183 -156 -464 -432 -158 -156 -189 -202 -189 -284 0
-40 4 -47 93 -132 75 -71 96 -98 106 -134 18 -60 106 -255 133 -292 25 -37 90
-67 140 -68 20 0 70 7 110 17 55 12 119 16 256 16 l183 -1 10 26 c12 31 2 58
-42 113 -39 49 -116 86 -207 98 -51 7 -78 15 -88 28 -43 55 -144 243 -144 270
0 11 35 35 120 81 91 50 323 212 399 279 30 26 101 87 158 134 57 48 116 102
131 120 16 19 50 57 76 84 90 94 133 157 218 315 61 112 80 142 88 133 16 -16
49 -189 60 -308 6 -66 16 -140 22 -165 5 -25 23 -115 38 -200 43 -233 49 -262
98 -435 24 -88 47 -194 51 -236 6 -67 10 -80 36 -106 96 -95 209 -130 465
-145 102 -5 221 -7 265 -4 177 11 333 75 350 143 3 15 15 33 26 41 10 7 19 21
19 31 0 32 -23 46 -255 149 -49 22 -106 45 -125 51 -90 29 -156 61 -167 83
-14 25 -12 121 6 303 6 61 18 198 26 305 9 107 23 257 31 333 8 75 14 188 14
250 0 126 16 297 29 310 4 4 13 2 19 -6 16 -19 106 -170 167 -277 26 -47 53
-92 60 -100 12 -15 59 -105 114 -217 17 -34 35 -70 40 -80 21 -39 81 -170 81
-177 0 -5 16 -43 36 -85 21 -44 40 -105 46 -146 11 -72 12 -79 9 -130 -1 -16
-1 -37 1 -45 1 -8 -4 -87 -11 -176 -16 -184 -12 -291 13 -330 16 -23 22 -25
64 -21 26 3 65 10 87 16 45 13 148 32 183 33 39 1 41 22 24 283 -6 98 -7 164
-1 170 15 15 11 80 -10 168 -11 45 -27 120 -36 166 -15 73 -68 244 -95 306
-24 55 -51 126 -65 175 -9 30 -23 73 -30 95 -7 22 -18 65 -25 95 -6 30 -22
100 -35 155 -22 93 -29 146 -56 405 -5 52 -12 111 -14 130 -3 19 -7 78 -10
130 -7 111 -22 260 -36 345 -13 86 -29 467 -19 485 5 8 36 38 69 65 100 82
231 266 231 324 0 11 10 31 23 45 21 24 25 25 92 16 39 -5 96 -13 128 -19 37
-6 77 -7 115 -1 31 6 89 10 127 10 65 0 218 28 244 44 22 14 45 120 45 206 0
117 -18 153 -102 201 -104 60 -100 55 -133 204 -14 67 -28 89 -94 147 -51 45
-120 72 -255 99 -52 10 -113 23 -135 29 -61 15 -146 12 -180 -6z m-1149 -2256
c-9 -84 -41 -221 -51 -225 -6 -2 -22 16 -37 40 -15 23 -50 64 -77 92 -28 27
-51 54 -51 60 0 13 163 82 199 84 23 1 23 -1 17 -51z"/>
</g>
</svg>
