<?xml version="1.0" standalone="no"?>
<!DOCTYPE svg PUBLIC "-//W3C//DTD SVG 20010904//EN"
 "http://www.w3.org/TR/2001/REC-SVG-20010904/DTD/svg10.dtd">
<svg version="1.0" xmlns="http://www.w3.org/2000/svg"
 width="126.000000pt" height="143.000000pt" viewBox="0 0 126.000000 143.000000"
 preserveAspectRatio="xMidYMid meet">
<metadata>
Created by potrace 1.13, written by Peter Selinger 2001-2015
</metadata>
<g transform="translate(0.000000,143.000000) scale(0.100000,-0.100000)"
fill="#000000" stroke="none">
<path d="M620 1340 c-162 -21 -299 -100 -405 -232 -60 -76 -116 -184 -134
-262 -17 -69 -15 -249 4 -321 52 -204 183 -340 402 -416 119 -41 415 -42 547
-2 l59 18 29 105 c45 168 37 190 -31 85 -86 -133 -210 -195 -390 -195 -121 0
-266 63 -319 138 l-21 29 57 -21 c43 -15 83 -20 164 -21 97 0 107 -2 102 -17
-8 -28 31 -58 75 -58 112 0 190 76 237 230 17 59 19 97 19 395 0 182 4 336 8
343 14 20 23 14 42 -28 12 -26 25 -40 37 -40 15 0 18 8 18 54 0 29 -3 74 -6
99 -6 42 -10 48 -49 66 -101 48 -298 70 -445 51z m291 -77 c36 -18 75 -44 89
-58 l23 -25 -106 0 c-135 0 -144 -17 -17 -33 19 -3 27 -137 29 -502 1 -282 -8
-357 -51 -402 -34 -36 -55 -38 -100 -8 l-40 27 35 21 c74 46 117 127 117 221
-1 111 -58 174 -250 276 -68 36 -140 81 -161 101 -34 31 -39 42 -39 80 0 59
30 105 83 129 112 51 232 -1 273 -119 21 -63 34 -49 34 37 0 80 0 80 -33 101
-65 40 -210 46 -298 12 -75 -28 -138 -120 -139 -200 0 -95 70 -172 241 -265
124 -66 166 -100 191 -151 20 -41 21 -49 9 -93 -22 -84 -91 -133 -186 -133
-34 0 -67 7 -93 20 -59 30 -118 102 -132 161 -19 80 -39 61 -41 -38 0 -31 -4
-66 -9 -77 -7 -17 -11 -13 -30 30 -40 91 -53 172 -52 315 0 187 39 323 124
437 49 65 151 135 238 164 14 5 70 7 126 6 90 -2 107 -6 165 -34z"/>
</g>
</svg>
